#!OML:ASF E:\motion texture\Top Level 1\Subject 1\Session 1\male.ASF
:FULLY-SPECIFIED
:DEGREES
227
root 12.263 17.7304 3.14096 25.1487 -67.4345 -15.3152
lowerback 3.01496 6.12507 -0.745496
upperback 0.988452 8.11089 -1.18193
thorax -0.593257 4.04697 -1.0736
lowerneck -16.3979 -9.23167 -12.3597
upperneck 5.69531 -11.8107 17.0732
head 6.24112 -5.01997 6.17315
rclavicle 2.10712e-014 -2.8625e-014
rhumerus -14.6805 41.7471 -96.8561
rradius 76.9731
rwrist -32.0346
rhand -7.62314 -43.4977
rfingers 7.12502
rthumb 18.2714 -72.6595
lclavicle 2.10712e-014 -2.8625e-014
lhumerus -45.3044 -16.1529 95.8283
lradius 82.7156
lwrist 34.0225
lhand 3.63071 25.4876
lfingers 7.12502
lthumb 29.0631 53.2405
rfemur -33.516 -13.7325 28.7358
rtibia 61.089
rfoot 1.38015 -10.8899
rtoes 5.1479
lfemur -26.4524 -8.43209 -16.9926
ltibia 27.0376
lfoot -8.13586 -0.932887
ltoes 5.68015
228
root 12.1053 17.744 3.15723 24.249 -66.8524 -14.4122
lowerback 3.05759 6.15606 -0.790712
upperback 0.996204 8.15013 -1.17576
thorax -0.615629 4.06643 -1.04913
lowerneck -16.2935 -9.45667 -12.5383
upperneck 5.63758 -12.096 17.1659
head 6.26703 -5.16191 6.1933
rclavicle -3.91606e-014 5.80451e-014
rhumerus -14.3057 42.0408 -96.1326
rradius 76.8511
rwrist -32.2749
rhand -6.98845 -43.2762
rfingers 7.12502
rthumb 18.8819 -72.3798
lclavicle -3.91606e-014 5.80451e-014
lhumerus -45.1909 -15.5907 95.4111
lradius 81.4723
lwrist 33.5817
lhand 3.68902 25.6239
lfingers 7.12502
lthumb 29.1188 53.3672
rfemur -34.1992 -13.8585 28.368
rtibia 60.3949
rfoot 0.929232 -11.0657
rtoes 5.49937
lfemur -25.6985 -8.68899 -17.1746
ltibia 26.7448
lfoot -8.51093 -1.28472
ltoes 5.59666
229
root 11.9483 17.7567 3.17344 23.4082 -66.2694 -13.5583
lowerback 3.0943 6.18909 -0.834025
upperback 1.00265 8.19223 -1.16981
thorax -0.635796 4.08734 -1.02546
lowerneck -16.1815 -9.68227 -12.7166
upperneck 5.57173 -12.3825 17.2591
head 6.29013 -5.30498 6.21317
rclavicle -7.23576e-014 7.15625e-015
rhumerus -13.874 42.3259 -95.3096
rradius 76.7723
rwrist -32.4848
rhand -6.32902 -43.0443
rfingers 7.12502
rthumb 19.516 -72.0848
lclavicle -7.23576e-014 7.15625e-015
lhumerus -45.0644 -14.9972 94.9569
lradius 80.2135
lwrist 33.1014
lhand 3.69973 25.7883
lfingers 7.12502
lthumb 29.129 53.5298
rfemur -34.8481 -13.9774 27.9904
rtibia 59.5781
rfoot 0.470361 -11.2447
rtoes 5.76927
lfemur -24.9526 -8.93709 -17.3446
ltibia 26.4402
lfoot -8.88015 -1.63566
ltoes 5.50824
230
root 11.7918 17.7683 3.1897 22.6196 -65.6847 -12.747
lowerback 3.12551 6.22285 -0.871995
upperback 1.00778 8.23553 -1.16683
thorax -0.653117 4.10889 -1.00716
lowerneck -16.0626 -9.90764 -12.8917
upperneck 5.49842 -12.67 17.3539
head 6.3106 -5.44889 6.23261
rclavicle -1.17681e-013 2.82274e-014
rhumerus -13.3816 42.5893 -94.3871
rradius 76.7381
rwrist -32.678
rhand -5.64242 -42.8038
rfingers 7.12502
rthumb 20.1761 -71.776
lclavicle -1.17681e-013 2.82274e-014
lhumerus -44.9268 -14.3757 94.4634
lradius 78.9434
lwrist 32.5799
lhand 3.65383 25.9842
lfingers 7.12502
lthumb 29.0852 53.7333
rfemur -35.4596 -14.0932 27.6016
rtibia 58.6403
rfoot 0.0172139 -11.4257
rtoes 5.92967
lfemur -24.2158 -9.1782 -17.505
ltibia 26.1279
lfoot -9.24358 -1.98634
ltoes 5.41189
231
root 11.6358 17.7788 3.206 21.8857 -65.1002 -11.9809
lowerback 3.15085 6.25661 -0.903941
upperback 1.01091 8.27913 -1.16524
thorax -0.668241 4.13062 -0.992964
lowerneck -15.9376 -10.1312 -13.065
upperneck 5.4189 -12.956 17.4496
head 6.32859 -5.59244 6.25205
rclavicle 1.05952e-013 -5.56597e-014
rhumerus -12.8247 42.8276 -93.3581
rradius 76.7486
rwrist -32.8685
rhand -4.94124 -42.5569
rfingers 7.12502
rthumb 20.8499 -71.4565
lclavicle 1.05952e-013 -5.56597e-014
lhumerus -44.7805 -13.723 93.9312
lradius 77.6649
lwrist 32.0188
lhand 3.55732 26.1989
lfingers 7.12502
lthumb 28.993 53.9639
rfemur -36.0336 -14.2036 27.2039
rtibia 57.5863
rfoot -0.417267 -11.6055
rtoes 5.97536
lfemur -23.4917 -9.40999 -17.6535
ltibia 25.8133
lfoot -9.60114 -2.33286
ltoes 5.31429
232
root 11.4803 17.7882 3.22235 21.2043 -64.5169 -11.2582
lowerback 3.16938 6.29163 -0.930271
upperback 1.0117 8.3247 -1.16488
thorax -0.681038 4.15339 -0.982456
lowerneck -15.8038 -10.3533 -13.2336
upperneck 5.33234 -13.2414 17.5442
head 6.34316 -5.73631 6.27026
rclavicle -4.75095e-014 6.36111e-015
rhumerus -12.2023 43.0231 -92.2198
rradius 76.8041
rwrist -33.0628
rhand -4.22802 -42.3022
rfingers 7.12502
rthumb 21.535 -71.125
lclavicle -4.75095e-014 6.36111e-015
lhumerus -44.6276 -13.0447 93.3634
lradius 76.3798
lwrist 31.4183
lhand 3.39693 26.4364
lfingers 7.12502
lthumb 28.8398 54.2276
rfemur -36.5685 -14.308 26.7983
rtibia 56.4213
rfoot -0.813758 -11.7783
rtoes 5.9369
lfemur -22.782 -9.63052 -17.7898
ltibia 25.4998
lfoot -9.95303 -2.67522
ltoes 5.21448
233
root 11.3251 17.7963 3.23878 20.5729 -63.9361 -10.578
lowerback 3.18086 6.32601 -0.951407
upperback 1.01154 8.36977 -1.16348
thorax -0.69036 4.17594 -0.972896
lowerneck -15.665 -10.5726 -13.4012
upperneck 5.24101 -13.5235 17.6377
head 6.35544 -5.87903 6.28826
rclavicle 5.70512e-014 -1.74931e-014
rhumerus -11.5084 43.1703 -90.9669
rradius 76.9004
rwrist -33.261
rhand -3.49907 -42.0408
rfingers 7.12502
rthumb 22.2349 -70.7818
lclavicle 5.70512e-014 -1.74931e-014
lhumerus -44.467 -12.3354 92.7621
lradius 75.0906
lwrist 30.7807
lhand 3.16916 26.6986
lfingers 7.12502
lthumb 28.6222 54.5267
rfemur -37.0612 -14.4057 26.3855
rtibia 55.1499
rfoot -1.15216 -11.9407
rtoes 5.82298
lfemur -22.0848 -9.83967 -17.9136
ltibia 25.1877
lfoot -10.2989 -3.01248
ltoes 5.11541
